<?xml version="1.0" standalone="no"?>
<!DOCTYPE svg PUBLIC "-//W3C//DTD SVG 20010904//EN"
 "http://www.w3.org/TR/2001/REC-SVG-20010904/DTD/svg10.dtd">
<svg version="1.0" xmlns="http://www.w3.org/2000/svg"
 width="256.000000pt" height="256.000000pt" viewBox="0 0 256.000000 256.000000"
 preserveAspectRatio="xMidYMid meet">

<g transform="translate(0.000000,256.000000) scale(0.100000,-0.100000)"
fill="#000000" stroke="none">
<path d="M515 2545 c-229 -50 -408 -209 -483 -429 l-27 -81 0 -760 0 -760 27
-73 c36 -101 82 -173 153 -246 73 -75 154 -125 260 -163 l80 -28 755 0 755 0
80 28 c201 71 347 216 413 411 l27 81 3 721 c3 799 3 800 -60 937 -62 136
-164 239 -303 308 -140 69 -136 69 -920 68 -541 0 -714 -4 -760 -14z m231
-484 c108 -49 140 -198 61 -288 -134 -152 -385 -7 -313 182 19 47 83 111 120
118 48 10 93 5 132 -12z m1075 -532 c108 -24 181 -92 222 -206 19 -54 21 -85
25 -445 l3 -388 -149 0 -150 0 -4 313 c-4 258 -8 320 -22 357 -31 82 -84 120
-166 120 -88 0 -141 -35 -177 -115 -15 -35 -18 -80 -21 -357 l-4 -318 -149 0
-149 0 0 525 0 525 140 0 140 0 0 -72 0 -72 35 42 c81 93 248 129 426 91z
m-971 -514 l0 -525 -180 0 -180 0 0 525 0 525 180 0 180 0 0 -525z"/>
</g>
</svg>
